<?xml version="1.0" encoding="UTF-8"?>
<svg version="1.1" xmlns="http://www.w3.org/2000/svg" width="2266" height="1641">
<path d="M0 0 C12.66845042 0.65433831 25.24410561 1.87422749 37.85644531 3.20898438 C40.0098941 3.43438659 42.16337298 3.65950148 44.31687927 3.88435364 C50.11593191 4.49073417 55.91453616 5.10130372 61.71304798 5.7128315 C67.79543871 6.35372937 73.87818458 6.99124045 79.96087646 7.62927246 C90.15890224 8.69952223 100.3566354 9.77252611 110.55419922 10.84716797 C122.34651221 12.08983154 134.13928998 13.32800752 145.93232083 14.56383848 C157.29370759 15.7545472 168.65475293 16.94848385 180.01564789 18.14387512 C184.84639191 18.65210262 189.67725479 19.15917843 194.50821686 19.66532898 C200.18520399 20.26026087 205.86188785 20.85800683 211.53834724 21.4579525 C213.62322456 21.67784121 215.70820553 21.89674964 217.79329491 22.1146183 C220.63333708 22.41153319 223.47298604 22.71196045 226.31256104 23.01330566 C227.14211343 23.09920251 227.97166583 23.18509936 228.82635617 23.27359915 C232.29764614 23.64534494 235.62840561 24.098679 239 25 C238.38063506 37.84925844 237.20618383 50.59805147 235.8455658 63.38801575 C235.62320831 65.5057588 235.40119381 67.6235379 235.1794892 69.7413494 C234.57359769 75.51960822 233.96288647 81.29734869 233.35134232 87.07501161 C232.69055917 93.32609696 232.03431431 99.57765896 231.37750244 105.8291626 C230.23855529 116.66368437 229.09678732 127.49790525 227.95301628 138.33191872 C226.74907323 149.73601386 225.54677978 161.14028101 224.34662056 172.54477501 C224.23409156 173.61406698 224.23409156 173.61406698 224.11928924 174.7049608 C223.7380591 178.32763031 223.35685774 181.95030285 222.97566742 185.57297655 C220.2753917 211.23477121 217.57150466 236.89618419 214.86547852 262.55737305 C212.2575588 287.28830346 209.65121842 312.01939943 207.04711914 336.75073242 C206.92745358 337.88719615 206.92745358 337.88719615 206.80537053 339.04661874 C206.00326066 346.66427276 205.20118437 354.28193031 204.39913284 361.89959047 C202.74467629 377.61314919 201.0900006 393.32668484 199.43519592 409.04020691 C199.32021954 410.13199218 199.32021954 410.13199218 199.2029204 411.24583371 C197.32364637 429.09083582 195.44411594 446.93581089 193.56321746 464.78064186 C193.41817005 466.1567696 193.27312286 467.53289735 193.1280759 468.90902513 C193.05661857 469.58696885 192.98516125 470.26491256 192.91153855 470.96340003 C192.4835792 475.02389082 192.05585099 479.08440588 191.62831848 483.14494164 C190.33632542 495.41559059 189.04302953 507.68608902 187.7378623 519.95534489 C187.09420345 526.00612259 186.45195494 532.0570493 185.81051636 538.10806274 C185.6874836 539.26833902 185.56445084 540.42861529 185.43768982 541.62405144 C183.87810898 556.3578964 182.39020902 571.09648643 180.98963019 585.84627772 C180.48016338 591.18342419 179.95622094 596.51917342 179.43234592 601.85492262 C179.04342494 605.83521622 178.66559143 609.8157946 178.3178519 613.79991305 C176.28106971 637.08966176 170.92086728 656.15503641 159.41113281 676.53271484 C155.43144629 683.72642516 152.33237593 691.33783869 149.11437988 698.89337158 C147.27503364 703.19575739 145.39097283 707.47837197 143.5078125 711.76171875 C143.13692505 712.60702148 142.7660376 713.45232422 142.38391113 714.32324219 C138.27345042 723.67959086 134.07851935 732.99767544 129.875 742.3125 C129.49986267 743.14383453 129.12472534 743.97516907 128.73822021 744.83169556 C128.3642511 745.66043182 127.99028198 746.48916809 127.60498047 747.34301758 C122.74658395 758.11056111 117.91727436 768.8903611 113.125 779.6875 C112.80347961 780.41185242 112.48195923 781.13620483 112.1506958 781.88250732 C110.82311497 784.87384179 109.49583562 787.86530974 108.16897583 790.85696411 C105.53463454 796.79647467 102.89694289 802.73449095 100.2578125 808.671875 C99.85050903 809.58820709 99.44320557 810.50453918 99.02355957 811.44863892 C97.76575033 814.27827882 96.50788546 817.10789398 95.25 819.9375 C88.2116518 835.77020229 88.2116518 835.77020229 81.1807251 851.60620117 C71.86983599 872.59058441 62.52725381 893.55973312 53.08544922 914.4855957 C48.3537362 924.97430218 43.66285812 935.48049852 39 946 C31.23172797 944.75972199 23.52924576 943.341481 15.83740234 941.69458008 C14.25034438 941.35812249 14.25034438 941.35812249 12.63122463 941.01486778 C9.1155973 940.26890092 5.60077431 939.5192133 2.0859375 938.76953125 C-0.45269438 938.23010005 -2.99137682 937.69090675 -5.53010559 937.15193176 C-11.00658528 935.98889988 -16.48266064 934.82398036 -21.95846558 933.65777588 C-30.02379498 931.94009071 -38.0897606 930.22540839 -46.15588844 928.51147699 C-56.23012215 926.37083 -66.30423066 924.22959519 -76.37800598 922.08679199 C-77.1656606 921.91924935 -77.95331522 921.75170671 -78.76483816 921.57908702 C-79.55358644 921.41131102 -80.34233473 921.24353502 -81.15498447 921.0706749 C-100.44242847 916.96801372 -119.73112301 912.87126918 -139.02056623 908.77801871 C-145.78659573 907.34224594 -152.55259703 905.90634024 -159.31860352 904.47045898 C-160.06368868 904.31233864 -160.80877385 904.15421829 -161.57643735 903.99130642 C-220.37540912 891.51303207 -279.16961083 879.0123629 -337.96118033 866.49926329 C-343.73802822 865.26973047 -349.51488197 864.04022516 -355.2917397 862.81073856 C-356.72871162 862.50490796 -358.16568313 862.19907542 -359.60265422 861.89324093 C-380.84388314 857.37243357 -402.08592615 852.85546991 -423.32871437 848.34199524 C-427.73817571 847.40511127 -432.14761575 846.4681271 -436.55705261 845.53112793 C-439.4414359 844.91820883 -442.32582027 844.30529478 -445.21020508 843.69238281 C-445.91683001 843.54222906 -446.62345495 843.39207531 -447.35149276 843.23737144 C-454.90386492 841.63255295 -462.45629054 840.02798698 -470.00888062 838.42419434 C-498.68396271 832.33489824 -527.35508025 826.2298561 -556 820 C-564.59191744 781.28368656 -572.78334326 742.48406482 -580.94878006 703.67599583 C-582.20114628 697.72402049 -583.45395512 691.77213841 -584.70703125 685.8203125 C-584.95943573 684.62134779 -585.21184021 683.42238308 -585.47189331 682.18708611 C-589.27708234 664.1172371 -593.11312216 646.05414355 -596.96953201 627.99517441 C-597.81698146 624.02654194 -598.6636212 620.05773702 -599.51010132 616.08889771 C-600.0649873 613.48748456 -600.61989605 610.88607628 -601.17480469 608.28466797 C-601.4464551 607.01113276 -601.71810551 605.73759754 -601.99798775 604.42547035 C-603.61218579 596.86033375 -605.23093523 589.29618749 -606.85276318 581.73268318 C-607.8563067 577.04759133 -608.85572363 572.36162617 -609.85404396 567.67541885 C-610.3193045 565.49593534 -610.78637017 563.31683629 -611.2553463 561.13814926 C-611.89550246 558.16338246 -612.52943668 555.18735519 -613.16186523 552.2109375 C-613.35020306 551.34326815 -613.53854088 550.47559879 -613.73258591 549.58163643 C-613.9012328 548.78174231 -614.06987968 547.98184818 -614.24363708 547.15771484 C-614.46430422 546.12703384 -614.46430422 546.12703384 -614.68942928 545.07553101 C-615.04573212 542.69437416 -615.05073374 540.40415415 -615 538 C-607.3608685 536.04693975 -599.70974625 534.23637422 -591.99487305 532.609375 C-590.95570016 532.38838261 -589.91652727 532.16739021 -588.8458643 531.93970108 C-585.40157831 531.20776257 -581.95665236 530.47888383 -578.51171875 529.75 C-576.02960185 529.22315403 -573.54752694 528.69611021 -571.06549072 528.16888428 C-565.73531958 527.03708579 -560.40487838 525.90657294 -555.07418823 524.77722168 C-547.30798282 523.13185726 -539.54232767 521.48390773 -531.7768203 519.83525229 C-519.93168402 517.32048488 -508.08629122 514.80692882 -496.2407006 512.29430246 C-469.15947945 506.54989775 -442.08038609 500.79548277 -415.00170958 495.0390963 C-410.96392598 494.18074774 -406.92612514 493.32248032 -402.88830864 492.46428651 C-361.58307669 483.68529532 -320.2843705 474.87660211 -279 466 C-282.4194947 448.68659375 -285.99225391 431.40994178 -289.6640625 414.1484375 C-290.21087758 411.57245444 -290.75757721 408.99644712 -291.30413818 406.42041016 C-292.61940386 400.22262552 -293.93621578 394.02517045 -295.25357294 387.82783008 C-296.79965237 380.55413789 -298.34400493 373.28007934 -299.88833261 366.00601506 C-303.60286451 348.51035439 -307.32060353 331.01537577 -311.03915405 313.52056885 C-311.98619359 309.06499242 -312.9331651 304.60940153 -313.88012695 300.15380859 C-319.17711071 275.23091285 -324.47509624 250.30823015 -329.77514648 225.38598633 C-337.52868081 188.9265147 -345.27394283 152.46530477 -353 116 C-350.21115271 114.14076847 -348.85637936 113.58903329 -345.69642639 112.92720032 C-344.81367255 112.73897139 -343.93091871 112.55074245 -343.02141476 112.35680962 C-342.05149877 112.15696527 -341.08158278 111.95712093 -340.08227539 111.7512207 C-339.05352326 111.53383303 -338.02477114 111.31644535 -336.9648447 111.09247017 C-333.51037777 110.36408959 -330.05403624 109.64502451 -326.59765625 108.92578125 C-324.13686631 108.40864989 -321.67620623 107.89090026 -319.21566772 107.37257385 C-313.93091306 106.26053212 -308.64538183 105.15230532 -303.35910034 104.04754639 C-295.04999942 102.3109681 -286.74270151 100.56587001 -278.43579102 98.81884766 C-277.0310174 98.52343808 -275.62624337 98.22803048 -274.22146893 97.93262482 C-272.1002747 97.48656377 -269.97908242 97.04049344 -267.85789913 96.59438038 C-263.5599796 95.6905305 -259.26190433 94.78742546 -254.96371049 93.88488102 C-234.924344 89.67681311 -214.89252174 85.43449028 -194.8671875 81.16015625 C-193.60500586 80.89081331 -192.34282421 80.62147038 -191.04239464 80.34396553 C-180.126188 78.01426623 -169.21045053 75.68237655 -158.29544067 73.34707642 C-152.72418426 72.15511888 -147.15254971 70.96494456 -141.58064651 69.77601433 C-138.57055576 69.13309177 -135.56095511 68.4879097 -132.55136108 67.84266663 C-130.76400511 67.46122307 -128.97662278 67.079903 -127.18920898 66.69873047 C-126.37948167 66.5244518 -125.56975435 66.35017313 -124.73548985 66.17061329 C-119.22796239 65 -119.22796239 65 -117 65 C-112.81344167 84.66763836 -108.62761049 104.33543143 -104.44220638 124.00331545 C-103.93907966 126.36757694 -103.43594448 128.73183664 -102.93280792 131.09609604 C-94.96372925 168.54337714 -86.99894928 205.99156501 -79.04937577 243.44299221 C-78.5278005 245.90019194 -78.00620694 248.35738778 -77.4846096 250.81458282 C-74.47052978 265.0137466 -71.45662366 279.21294722 -68.44454956 293.41253662 C-66.59634154 302.12539011 -64.74773563 310.83815906 -62.8984375 319.55078125 C-62.75203457 320.24054519 -62.60563164 320.93030912 -62.45479226 321.640975 C-56.34267416 350.43579309 -50.18180367 379.22006116 -44 408 C-42.39140554 398.25354924 -41.22748804 388.48647202 -40.20970154 378.66442871 C-40.03984049 377.048072 -39.86970132 375.4317445 -39.69931084 373.81544352 C-39.23548728 369.40814538 -38.77554406 365.00044989 -38.31626523 360.59267616 C-37.81891735 355.82633365 -37.3179004 351.06037665 -36.81732178 346.29437256 C-35.95158315 338.04709769 -35.08808271 329.799591 -34.22607231 321.55192566 C-32.97914819 309.62185899 -31.72828967 297.69220732 -30.47639561 285.76266128 C-28.4443192 266.39800093 -26.41469822 247.03308412 -24.38696289 227.66796875 C-24.265741 226.51029206 -24.14451911 225.35261537 -24.01962382 224.15985757 C-23.5283851 219.46845254 -23.03715431 214.77704668 -22.54593324 210.0856398 C-21.19183091 197.15341384 -19.83735899 184.2212266 -18.48266602 171.2890625 C-18.36129005 170.13037665 -18.23991408 168.97169079 -18.11486005 167.77789325 C-16.09257714 148.47328391 -14.06843826 129.16886954 -12.04309899 109.86458063 C-10.79423206 97.96017706 -9.54713037 86.05559099 -8.30229641 74.150765 C-7.45021421 66.00289014 -6.59650848 57.85518648 -5.74151354 49.70761675 C-5.24802455 45.00436377 -4.755328 40.30103113 -4.26468086 35.59748077 C-3.8158268 31.29467581 -3.36482814 26.99210131 -2.91210414 22.68970186 C-2.74846762 21.13087892 -2.58563458 19.57197139 -2.42367344 18.01297349 C-2.20387273 15.89831515 -1.9811887 13.78397967 -1.7577734 11.66970062 C-1.634689 10.49391874 -1.51160459 9.31813685 -1.38479036 8.10672522 C-1.04499963 5.36331858 -0.58666284 2.69994978 0 0 Z M-245.875 548.6875 C-252.65024865 557.14087736 -253.37133302 568.49179139 -253 579 C-251.66089737 590.13129058 -247.90657127 598.31886062 -239.23046875 605.46484375 C-229.16087497 612.39540479 -215.92922015 614.1354318 -204 613 C-196.09339686 611.27623665 -190.56111155 607.78111157 -185 602 C-184.44441406 601.44183594 -183.88882813 600.88367188 -183.31640625 600.30859375 C-175.29544606 591.68756173 -173.64563399 582.01150031 -173.80078125 570.56640625 C-174.3035638 561.56561281 -176.98608494 555.9103063 -183.26171875 549.3984375 C-194.04004798 539.95778964 -204.68530765 536.18551186 -218.99755859 536.84765625 C-229.23473417 537.62649038 -238.70014205 541.25800199 -245.875 548.6875 Z M-74.1328125 571.55078125 C-83.35774854 584.33907493 -85.25410375 595.41425825 -84 611 C-82.39192815 618.58091015 -78.38531816 625.05451426 -71.91796875 629.3984375 C-59.49817752 636.19533817 -44.55526462 639.40536081 -30.6875 635.875 C-20.44055516 632.2438011 -15.61281656 625.63540108 -11 616 C-6.26264226 604.75954209 -4.51423359 594.84812657 -8.58203125 583.14453125 C-13.53573892 572.15903628 -22.63572411 564.84752001 -33.75 560.625 C-49.48430568 555.46114652 -63.1941087 558.46841206 -74.1328125 571.55078125 Z " fill="#35B8B2" transform="translate(1306,191)"/>
<path d="M0 0 C13.86 0 27.72 0 42 0 C41.99887207 5.85137695 41.99774414 11.70275391 41.99658203 17.73144531 C41.99721205 37.15345141 42.03052158 56.57530263 42.0802784 75.99724197 C42.10963448 87.76253088 42.12814858 99.52764103 42.12011719 111.29296875 C42.11313647 121.5610932 42.12753879 131.82894034 42.16643608 142.09699702 C42.18627052 147.52172353 42.19620216 152.94601619 42.18042374 158.37076569 C42.12202306 180.73428724 42.22029028 201.95147943 48.46198845 223.59278488 C49 226 49 226 49 231 C34.48 231 19.96 231 5 231 C3.68 225.06 2.36 219.12 1 213 C-1.31 214.98 -3.62 216.96 -6 219 C-21.1890591 230.8694377 -37.85361879 235.38111248 -57 234 C-70.59328747 232.1502805 -82.21348277 227.44639146 -93 219 C-93.69867188 218.46632813 -94.39734375 217.93265625 -95.1171875 217.3828125 C-111.53620637 204.03038081 -119.66709924 182.47768447 -122 162 C-123.4659327 137.20617464 -119.9881181 112.85452574 -104 93 C-103.41863281 92.24460937 -102.83726562 91.48921875 -102.23828125 90.7109375 C-91.27687236 77.33663986 -74.97165915 69.39037453 -58 67 C-41.28811053 65.5111727 -25.00800293 68.24142721 -11 78 C-6.05 82.455 -6.05 82.455 -1 87 C-0.67 58.29 -0.34 29.58 0 0 Z M-74.4609375 126.84765625 C-81.38311959 136.52816978 -81.98696033 147.48994487 -81 159 C-78.82002793 169.46386591 -72.63850776 177.8505538 -64 184 C-53.63412955 190.45742749 -41.37470659 191.64136788 -29.4921875 189.3125 C-18.92893625 186.37145557 -11.3806279 180.92316236 -5 172 C0.67993467 161.5523626 1.52336299 150.1490743 -0.6484375 138.53125 C-3.83248724 127.97217905 -9.64387834 120.99353048 -19.125 115.44140625 C-38.54257506 105.70623614 -60.69385578 110.47174397 -74.4609375 126.84765625 Z " fill="#35B8B2" transform="translate(594,1210)"/>
<path d="M0 0 C16.42096685 13.89288015 25.04492505 33.65569982 27.25 54.8125 C27.35400473 56.51969953 27.43847742 58.22824221 27.5 59.9375 C27.53996094 60.73027344 27.57992188 61.52304688 27.62109375 62.33984375 C27.82789169 69.8453924 26.59687562 76.25937069 25.5 83.9375 C-12.45 83.9375 -50.4 83.9375 -89.5 83.9375 C-81.34824664 95.58286194 -74.18270113 102.24185709 -60.375 105.1875 C-40.2313633 108.29297732 -22.11476959 103.62009207 -3.734375 95.75390625 C-1.5 94.9375 -1.5 94.9375 1.5 94.9375 C3.66949703 99.55714065 5.82355824 104.18354565 7.96362305 108.81689453 C8.69379444 110.39209209 9.42814688 111.96535856 10.16674805 113.53662109 C11.22769557 115.79550465 12.27341328 118.06090605 13.31640625 120.328125 C13.64967422 121.02931458 13.9829422 121.73050415 14.3263092 122.45294189 C16.56361926 127.37153612 16.56361926 127.37153612 16.26426697 130.03460693 C14.93635627 133.34087577 11.62255733 134.36394576 8.5625 135.8125 C7.84811768 136.15692139 7.13373535 136.50134277 6.39770508 136.85620117 C-21.77614845 150.05782124 -55.05854348 154.00128063 -84.75 143.3125 C-104.06915562 135.79658712 -117.99707863 122.32520211 -127.1875 103.75 C-136.81453979 81.63640366 -137.4826344 54.61093087 -129.1875 32 C-128.32412641 29.96508704 -127.42953359 27.94305529 -126.5 25.9375 C-126.08105469 25.01839844 -125.66210938 24.09929687 -125.23046875 23.15234375 C-116.24859861 5.16271911 -101.00130752 -6.85012588 -82.5 -14.0625 C-53.97512264 -23.04255399 -23.75553034 -18.19926484 0 0 Z M-85 35.1875 C-89.09379658 39.81995402 -89.97109566 43.61523914 -92.5 49.9375 C-67.09 49.9375 -41.68 49.9375 -15.5 49.9375 C-16.90121724 41.53019656 -20.89350973 35.50219539 -27.6015625 30.21484375 C-44.4741299 18.86231383 -70.73574413 20.26286191 -85 35.1875 Z " fill="#35B8B2" transform="translate(1286.5,1295.0625)"/>
<path d="M0 0 C0.78761719 0.38027344 1.57523438 0.76054688 2.38671875 1.15234375 C19.97364396 10.26807985 32.55884152 25.9706398 38.875 44.5625 C42.00261277 54.81938498 43.15866974 64.57025165 43.25 75.25 C43.2641394 76.49172974 43.2641394 76.49172974 43.27856445 77.75854492 C43.27215942 78.96861206 43.27215942 78.96861206 43.265625 80.203125 C43.26336914 80.91114258 43.26111328 81.61916016 43.25878906 82.34863281 C42.87447678 86.28602086 41.8581984 90.13810719 41 94 C-15.43 94.495 -15.43 94.495 -73 95 C-64.20699817 107.56143118 -56.77104854 112.6363985 -42.0625 115.58984375 C-24.33734007 117.9637491 -3.49171661 114.53740385 12.23046875 105.75390625 C14 105 14 105 15.89257812 105.01806641 C19.26098417 106.58754383 20.1096916 109.69944932 21.48828125 112.95703125 C21.79573776 113.65640305 22.10319427 114.35577484 22.41996765 115.07633972 C23.06659762 116.5569478 23.70581022 118.04081412 24.33813477 119.52758789 C25.30787072 121.80164421 26.30518261 124.06202881 27.30664062 126.32226562 C27.93137569 127.76228961 28.55447782 129.20302335 29.17578125 130.64453125 C29.47462723 131.32070999 29.77347321 131.99688873 30.08137512 132.69355774 C31.18836698 135.33064307 32.03406823 137.45193087 31.85473633 140.33691406 C30.32374408 143.31581129 27.25313876 144.48145836 24.375 145.9375 C23.703479 146.28449951 23.03195801 146.63149902 22.34008789 146.98901367 C-4.71291603 160.5549423 -37.36875832 163.00875565 -66.25 154.25 C-85.78422939 147.18556636 -101.98126797 133.86961639 -111 115 C-120.49737698 91.77251784 -121.68412117 64.48242332 -112.83203125 40.88671875 C-111.67256063 38.17378264 -110.40027591 35.59583312 -109 33 C-108.55914063 32.16210938 -108.11828125 31.32421875 -107.6640625 30.4609375 C-103.95486176 23.84175607 -99.30649181 18.39782557 -94 13 C-93.38511719 12.37222656 -92.77023437 11.74445313 -92.13671875 11.09765625 C-68.35188081 -11.3629723 -28.56280586 -14.00957535 0 0 Z M-66.25 42.1875 C-71.33842249 47.39156845 -74.57264902 52.86324508 -76 60 C-50.59 60 -25.18 60 1 60 C-2.85872443 49.71006818 -7.62279477 41.64164728 -17.76171875 36.63671875 C-34.69511256 30.41951809 -51.40938123 32.19862198 -66.25 42.1875 Z " fill="#35B8B2" transform="translate(780,1285)"/>
<path d="M0 0 C16.39807585 14.15547295 26.6600135 33.3101251 29 55 C30.18584471 78.5768338 27.33331474 103.24421182 11.0612793 121.68261719 C-4.08405065 138.21041223 -22.34557747 148.81428315 -45.109375 150.12109375 C-68.59775954 151.11974956 -90.38391898 146.00094976 -108.3515625 130.08984375 C-116.09604784 122.91762741 -121.34685006 115.46754766 -126 106 C-126.41765625 105.18789062 -126.8353125 104.37578125 -127.265625 103.5390625 C-137.71177005 81.94516564 -136.19130663 54.90441668 -128.90234375 32.6484375 C-121.31518722 12.7417963 -106.58625761 -1.43287427 -87.59765625 -10.49609375 C-59.23153222 -22.35381118 -24.3478764 -19.41955289 0 0 Z M-84.75 40.8125 C-93.13151557 50.78229364 -94.07452558 62.46874803 -93 75 C-90.82163983 85.4561288 -84.64122299 93.86162595 -76 100 C-65.40272556 106.48203507 -53.55559681 107.64387013 -41.421875 105.3125 C-30.9010887 102.37646661 -23.3534441 96.88514644 -17 88 C-11.42062173 77.73732542 -10.18843899 66.05346813 -12.75390625 54.6484375 C-16.307802 44.53028725 -22.33641321 36.20189249 -31.9375 31.1875 C-50.5059723 22.73717728 -70.74383686 25.94941971 -84.75 40.8125 Z " fill="#35B8B2" transform="translate(1765,1294)"/>
<path d="M0 0 C15.29170606 12.99638461 25.62630877 31.54157754 27.8984375 51.5625 C28.93886897 66.81844046 29.15925493 82.05227152 23.8984375 96.5625 C23.52460937 97.62984375 23.15078125 98.6971875 22.765625 99.796875 C15.45529831 118.87150227 1.7755534 133.45234602 -16.4765625 142.375 C-38.24550991 151.59967126 -62.73454796 152.35807725 -84.9140625 144.25 C-86.9891334 143.38368345 -89.05256308 142.48879637 -91.1015625 141.5625 C-92.03484375 141.14355469 -92.968125 140.72460938 -93.9296875 140.29296875 C-110.92388869 131.86870045 -123.23799871 115.95444399 -130.1015625 98.5625 C-138.36226901 73.84198573 -136.8741236 46.95184869 -125.609375 23.44921875 C-116.18856673 6.07256043 -100.09245448 -7.89725702 -81.1171875 -13.7265625 C-53.35183017 -21.59855109 -23.13936891 -18.18509597 0 0 Z M-85.4765625 39.8125 C-93.46246539 49.36331719 -94.86337927 60.48629341 -94.1015625 72.5625 C-92.41684252 82.49949241 -87.27279238 91.65090512 -79.44921875 98.02734375 C-68.32810902 105.29955028 -55.66960441 107.27928009 -42.68359375 104.94921875 C-32.45800618 102.17597099 -24.2111118 97.14309795 -18.1015625 88.375 C-12.19934806 78.07450077 -10.9589915 67.16148003 -13.1015625 55.5625 C-16.04039353 45.3980307 -20.99070315 37.97046077 -29.9140625 32.25 C-48.20244392 22.18727739 -70.79791057 24.42709816 -85.4765625 39.8125 Z " fill="#35B8B2" transform="translate(1584.1015625,1294.4375)"/>
<path d="M0 0 C15.18 0 30.36 0 46 0 C47.20329956 4.9495166 47.20329956 4.9495166 48.4309082 9.99902344 C51.08880183 20.93145595 53.74711927 31.86378537 56.40565205 42.79606247 C58.01665654 49.42079412 59.62751877 56.0455603 61.23803711 62.67041016 C62.79382282 69.07011615 64.35001687 75.46972275 65.90645409 81.86927032 C66.49861211 84.30431109 67.09063593 86.73938449 67.68251991 89.17449188 C68.51495495 92.59916323 69.34787786 96.0237156 70.1809082 99.44824219 C70.54343437 100.94042519 70.54343437 100.94042519 70.9132843 102.4627533 C72.58098398 109.31554821 74.28242357 116.1595414 76 123 C77.41662066 120.34040205 78.40484846 117.86489222 79.11799622 114.93983459 C79.41419106 113.7402285 79.41419106 113.7402285 79.71636963 112.51638794 C79.92574158 111.64738861 80.13511353 110.77838928 80.35083008 109.88305664 C80.57717636 108.96035477 80.80352264 108.03765289 81.03672791 107.08699036 C81.78560388 104.02915145 82.52760096 100.96968716 83.26953125 97.91015625 C83.79237802 95.76889886 84.31563383 93.62774131 84.83927917 91.48667908 C86.22094361 85.83226925 87.59671608 80.17644123 88.97137451 74.52032471 C90.07995711 69.96299724 91.19250489 65.40664268 92.30533314 60.85035038 C94.62808186 51.34014067 96.94795333 41.82922804 99.26098633 32.31665039 C99.46428558 31.48206299 99.66758484 30.64747559 99.87704468 29.78759766 C102.28708489 19.86674184 104.63521691 9.93208896 107 0 C122.18 0 137.36 0 153 0 C152.32427426 4.73008018 151.60363467 8.88809012 150.38378906 13.44165039 C150.0504808 14.69368759 149.71717255 15.94572479 149.37376404 17.23570251 C149.00446462 18.60637539 148.63508213 19.97702588 148.265625 21.34765625 C147.87543748 22.80704294 147.4856001 24.26652328 147.09608459 25.72608948 C146.03927153 29.68178013 144.97733481 33.63607837 143.91427994 37.59009552 C142.79993615 41.73760686 141.68970279 45.88621856 140.57885742 50.03466797 C138.70109593 57.04455037 136.8199882 64.0535285 134.93701172 71.06201172 C132.70804446 79.35857977 130.48483383 87.65667563 128.26441383 95.95553493 C126.08437171 104.10301666 123.90050461 112.24946847 121.71496582 120.39547729 C120.77887152 123.88482092 119.84415267 127.37452875 118.91052246 130.86453247 C117.81115758 134.97339676 116.70844941 139.08134915 115.60311699 143.18861198 C115.19619796 144.70285482 114.79045529 146.21741431 114.38594246 147.73230171 C113.83506367 149.79456287 113.28003165 151.85566039 112.72387695 153.91650391 C112.41335892 155.07372955 112.10284088 156.2309552 111.78291321 157.42324829 C111 160 111 160 110 161 C107.91380978 161.09417773 105.82439523 161.11742878 103.73608398 161.11352539 C102.7556311 161.11374443 102.7556311 161.11374443 101.75537109 161.1139679 C99.58557872 161.11326883 97.41587121 161.10547678 95.24609375 161.09765625 C93.74536689 161.09579205 92.24463943 161.09436816 90.74391174 161.09336853 C86.78681774 161.08954352 82.82976022 161.0797134 78.87268066 161.06866455 C74.83765151 161.05845006 70.80261647 161.05387083 66.76757812 161.04882812 C58.84503531 161.03809111 50.92252219 161.0210149 43 161 C42.80051254 160.26167435 42.60102509 159.52334869 42.39549255 158.76264954 C41.02247445 153.68103418 39.649434 148.59942488 38.27619934 143.51786804 C38.07722707 142.78158519 37.8782548 142.04530233 37.67325306 141.28670788 C37.2538712 139.73481805 36.83448779 138.18292864 36.41510296 136.63103962 C35.09185361 131.73436259 33.76892107 126.83760008 32.44619179 121.94078255 C27.42739918 103.36160341 22.40111819 84.78448987 17.35977364 66.21141624 C15.76667162 60.34120837 14.17486091 54.47065017 12.58302593 48.60009861 C11.03116325 42.87766387 9.47705442 37.15584477 7.92143536 31.43443012 C6.95031211 27.86066749 5.98126551 24.28634423 5.01279259 20.71186256 C4.55961277 19.04099312 4.10554576 17.37036402 3.65055275 15.69998741 C3.02937706 13.41909931 2.41127525 11.1374002 1.79394531 8.85546875 C1.61025611 8.18394429 1.42656691 7.51241983 1.23731136 6.82054615 C0 2.2281506 0 2.2281506 0 0 Z " fill="#35B8B2" transform="translate(989,1280)"/>
<path d="M0 0 C13.86 0 27.72 0 42 0 C42 76.23 42 152.46 42 231 C28.14 231 14.28 231 0 231 C0 154.77 0 78.54 0 0 Z " fill="#35B8B2" transform="translate(849,1210)"/>
<path d="M0 0 C1.3778064 0.00241699 1.3778064 0.00241699 2.78344727 0.00488281 C13.28480275 0.19229218 22.17694041 2.20469245 30.875 8.375 C24.76938833 22.8149726 18.42298658 37.13029345 11.875 51.375 C8.00690376 51.375 6.3759588 50.92626259 2.9375 49.4375 C-7.1603215 45.08310711 -17.02777542 45.26958788 -27.3203125 49.0390625 C-33.40339308 51.93657442 -38.22368978 56.26338467 -41.125 62.375 C-41.57974252 65.68339654 -41.56248832 68.97032245 -41.55737305 72.3059082 C-41.57266052 73.7992997 -41.57266052 73.7992997 -41.58825684 75.32286072 C-41.61840384 78.60722468 -41.62765558 81.89129706 -41.63671875 85.17578125 C-41.65356413 87.45551016 -41.67171418 89.73522977 -41.69111633 92.01493835 C-41.73863752 98.01047867 -41.76843336 104.0059813 -41.79455566 110.00164795 C-41.82435034 116.12161707 -41.87088448 122.24145629 -41.91601562 128.36132812 C-42.00207308 140.36583246 -42.06786043 152.37032315 -42.125 164.375 C-55.985 164.375 -69.845 164.375 -84.125 164.375 C-84.12910889 160.46648193 -84.13321777 156.55796387 -84.13745117 152.53100586 C-84.15474281 139.53507401 -84.19915348 126.53934915 -84.25709057 113.54354 C-84.29152803 105.67360875 -84.31706785 97.80384878 -84.32055664 89.93383789 C-84.32362648 83.06255645 -84.3445151 76.1915817 -84.38552457 69.32041842 C-84.40658712 65.6927714 -84.41959672 62.06555731 -84.41115379 58.43784904 C-84.37887877 41.94319125 -85.2418924 26.52425873 -89.6772356 10.55661869 C-90.125 8.375 -90.125 8.375 -90.125 3.375 C-75.935 3.375 -61.745 3.375 -47.125 3.375 C-45.805 8.985 -44.485 14.595 -43.125 20.375 C-40.65 17.9 -40.65 17.9 -38.125 15.375 C-26.63082646 5.17512835 -15.40911533 -0.02823993 0 0 Z " fill="#35B8B2" transform="translate(1423.125,1276.625)"/>
<path d="M0 0 C14.19 0 28.38 0 43 0 C43 53.13 43 106.26 43 161 C28.81 161 14.62 161 0 161 C0 107.87 0 54.74 0 0 Z " fill="#35B8B2" transform="translate(926,1280)"/>
<path d="M0 0 C6.93541987 4.10134464 10.7714704 10.13391478 12.96875 17.78515625 C14.62207625 25.59712279 13.28532733 33.50830486 8.99609375 40.2734375 C3.99185039 46.52003362 -1.17558519 49.49437316 -9.12109375 50.41015625 C-18.4201918 50.77537762 -25.20762782 49.48897796 -32.3984375 43.4609375 C-37.54344483 38.16534459 -39.58953188 31.21583322 -39.9375 23.9375 C-39.16079444 15.78209164 -36.49463288 8.80591728 -30.5625 3 C-21.91775455 -3.6697287 -9.89687232 -4.38865831 0 0 Z " fill="#35B8B2" transform="translate(960.5625,1209)"/>
</svg>
